# xmcd
#
# Track frame offsets:
#	150
#	28025
#	50750
#	86515
#	117310
#	126500
#	168375
#
# Disc length: 2774 seconds
#
# Revision: 2
# Processed by: cddbd v1.5.1PL2 Copyright (c) Steve Scherf et al.
# Submitted via: EasyCDDAExtractor 8.0.2.1
#
DISCID=5e0ad407
DTITLE=Black Sabbath - Tower Theater Upper Darby 08-08-92 Disc 1
DYEAR=1992
DGENRE=Hard Rock
TTITLE0=Children Of The Sea
TTITLE1=Time Machine
TTITLE2=War Pigs
TTITLE3=I
TTITLE4=Die Young
TTITLE5=Guitar Solo
TTITLE6=Black Sabbath
EXTD=
EXTT0=
EXTT1=
EXTT2=
EXTT3=
EXTT4=
EXTT5=
EXTT6=
PLAYORDER=
